<?xml version="1.0" standalone="no"?>
<!DOCTYPE svg PUBLIC "-//W3C//DTD SVG 20010904//EN"
 "http://www.w3.org/TR/2001/REC-SVG-20010904/DTD/svg10.dtd">
<svg version="1.0" xmlns="http://www.w3.org/2000/svg"
 width="260.000000pt" height="260.000000pt" viewBox="0 0 260.000000 260.000000"
 preserveAspectRatio="xMidYMid meet">
<metadata>
Created by potrace 1.14, written by Peter Selinger 2001-2017
</metadata>
<g transform="translate(0.000000,260.000000) scale(0.100000,-0.100000)"
fill="#000000" stroke="none">
<path d="M479 2422 c-84 -54 -148 -181 -149 -293 0 -69 9 -99 61 -202 l30 -59
-19 -31 c-34 -57 -70 -160 -87 -251 -15 -82 -15 -95 0 -184 45 -263 131 -454
297 -654 29 -35 109 -122 179 -193 77 -81 153 -171 196 -235 76 -114 104 -139
177 -164 63 -21 219 -21 282 0 73 25 101 50 177 164 44 65 118 154 197 235
147 152 212 227 267 310 111 166 171 321 208 533 14 85 14 101 0 185 -9 50
-31 129 -50 175 l-34 84 29 56 c53 106 62 136 62 197 0 102 -63 234 -138 291
-34 26 -45 29 -113 29 -65 0 -84 -4 -130 -30 -30 -16 -72 -51 -94 -76 l-40
-47 -41 18 c-131 56 -269 72 -376 44 -64 -16 -75 -17 -118 -3 -79 24 -212 17
-317 -16 -86 -28 -89 -28 -99 -9 -26 46 -106 112 -160 133 -81 30 -141 28
-197 -7z"/>
</g>
</svg>
