<svg xmlns="http://www.w3.org/2000/svg" width="230.935" height="267.033" viewBox="0 0 61.102 70.653"><defs><clipPath id="a" clipPathUnits="userSpaceOnUse"><path d="M0 595.28h841.89V0H0Z"/></clipPath></defs><g clip-path="url(#a)" transform="matrix(.35278 0 0 -.35278 -194.307 93.822)"><path d="M0 0c4.158 10.429-5.779 31.48-16.775 31.48-9.321 0-19.37-6.496-22.222-15.311-9.297 5.154-20.075 8.341-32.188 8.341 0 0-8.189-2.896-11.333-2.955-3.143-.059-11.274 2.955-11.274 2.955-11.186 0-21.233-2.717-30.028-7.192-2.201 9.505-12.81 16.677-22.607 16.677-10.996 0-20.933-21.051-16.775-31.48 4.045-10.146 6.314-14.007 8.132-14.859-8.156-13.361-11.91-27.612-10.627-37.623 5.384-41.988 28.725-62.6 43.629-77.33 21.071-20.826 15.151-32.896 39.428-32.693.053-.002.1 0 .151 0 .052 0 .099-.002.152 0 24.277-.203 18.357 11.867 39.428 32.693C-28.005-112.567-4.664-91.955.72-49.967c1.201 9.362-2.009 22.433-9.101 35.016C-6.519-14.343-4.231-10.616 0 0" style="fill:#854322;fill-opacity:1;fill-rule:nonzero;stroke:none" transform="translate(719.981 228.815)"/><path d="m0 0 .624-.003h.005c13.323 0 15.649 3.619 21.273 12.36 3.352 5.212 7.527 11.701 15.342 19.427.862.852 1.753 1.724 2.664 2.618 14.824 14.513 35.122 34.39 40.058 72.878 1.15 8.976-2.109 21.34-8.721 33.072l-1.883 3.342 3.534 1.154c.592.435 2.34 2.608 6.547 13.163 1.928 4.831-.059 13.771-4.521 20.352-2.937 4.334-6.339 6.82-9.333 6.82-8.261 0-16.889-5.892-19.232-13.135l-1.176-3.633-3.337 1.851c-9.357 5.188-19.495 7.86-30.139 7.945-2.21-.765-8.633-2.892-11.801-2.952l-.15-.001c-3.256-.001-9.531 2.157-11.731 2.953-9.849-.083-19.283-2.386-28.053-6.848l-3.582-1.822-.907 3.915c-1.787 7.72-10.738 14.242-19.544 14.242-2.994 0-6.396-2.486-9.334-6.82-4.461-6.581-6.447-15.521-4.521-20.352 4.328-10.857 6.056-12.851 6.598-13.204l3.177-1.489-1.88-2.968c-7.521-12.32-11.426-25.956-10.192-35.585 4.935-38.488 25.234-58.365 40.056-72.878.913-.894 1.803-1.766 2.665-2.618 7.816-7.724 11.99-14.212 15.344-19.426C-16.526 3.616-14.198-.003-.874-.003l.854.005Zm.626-6.29H.624l-.455.003h-.348l-.695-.003c-16.755 0-20.657 6.066-26.564 15.247-3.186 4.953-7.153 11.117-14.475 18.355-.856.846-1.739 1.71-2.644 2.598-14.607 14.302-36.681 35.918-41.893 76.57-1.352 10.54 2.271 24.368 9.732 37.413-1.751 2.193-3.838 6.272-7.04 14.304-3.066 7.69.274 19.005 5.157 26.209 4.187 6.177 9.35 9.579 14.538 9.579 10.328 0 20.502-6.664 24.437-15.464 8.893 3.97 18.362 5.979 28.199 5.979h.562l.528-.196c3.095-1.145 8.272-2.76 10.089-2.759 1.849.034 7.176 1.644 10.379 2.775l.508.18h.54c10.76 0 21.052-2.396 30.645-7.129 4.349 8.131 14.099 14.099 23.765 14.099 5.187 0 10.35-3.401 14.537-9.579 4.885-7.203 8.222-18.52 5.157-26.208-3.109-7.799-5.26-12.206-7.291-14.58 6.392-12.186 9.448-24.969 8.21-34.623-5.212-40.652-27.288-62.268-41.895-76.571-.904-.887-1.788-1.751-2.643-2.597-7.323-7.238-11.289-13.402-14.475-18.357C21.285-.224 17.38-6.29.626-6.29" style="fill:#000;fill-opacity:1;fill-rule:nonzero;stroke:none" transform="translate(637.52 71.968)"/><path d="M0 0s8.735 6.916 22.39 2.306c13.656-4.612 2.339-7.544 2.339-7.544L14.566-8.809 4.191-6.916Z" style="fill:#502a1d;fill-opacity:1;fill-rule:nonzero;stroke:none" transform="translate(624.732 91.399)"/><path d="M0 0c-2.245 1.752-4.438 3.029-3.518 3.296 0 0 2.415.603 3.889.59C2.6 3.867 3.313 2.931 3.55 1.62 3.794.266 1.811-1.415 0 0m-10.64 0c-1.811-1.415-3.795.266-3.55 1.62.237 1.311.95 2.247 3.179 2.266 1.474.013 3.889-.59 3.889-.59.92-.267-1.273-1.544-3.518-3.296m5.883 6.91c-7.109 0-17.852-1.432-17.852-8.504 0-7.072 1.195-19.091 17.823-19.027C11.92-20.557 12.609-8.1 12.609-1.028c0 7.072-10.259 7.938-17.366 7.938" style="fill:#000;fill-opacity:1;fill-rule:nonzero;stroke:none" transform="translate(642.392 89.445)"/><path d="M0 0c-1.374 3.967-5.549 6.604-7.278 6.892-1.02.171-4.876.816-6.283 1.315l-.549-2.593c-.396-1.732-1.134-2.995-2.213-3.789-1.077-.797-2.44-1.007-4.087-.629-1.172.268-2.167.958-2.986 2.072-.815 1.111-1.047 2.436-.698 3.97.551 2.401 1.729 3.938 3.542 4.609 1.809.673 3.997.716 6.56.129 1.812-.414 6.067-.907 7.626-1.643 1.92-.906 2.426-.554 3.34-1.937A21.113 21.113 0 0 0-.809 4.054C-.266 2.578.169 1.348.501.362z" style="fill:#000;fill-opacity:1;fill-rule:nonzero;stroke:none" transform="translate(677.29 167.168)"/><path d="M0 0c.332.986.768 2.216 1.31 3.692a21.062 21.062 0 0 0 2.217 4.342c.915 1.384 1.42 1.031 3.34 1.937 1.559.736 5.814 1.23 7.626 1.644 2.563.586 4.751.543 6.56-.13 1.813-.67 2.991-2.207 3.542-4.609.35-1.534.117-2.858-.698-3.969-.819-1.115-1.814-1.804-2.986-2.073-1.647-.378-3.01-.168-4.087.629-1.079.795-1.817 2.058-2.213 3.789l-.549 2.593C12.655 7.347 8.8 6.702 7.779 6.531 6.05 6.242 1.875 3.605.501-.362Z" style="fill:#000;fill-opacity:1;fill-rule:nonzero;stroke:none" transform="translate(596.565 167.53)"/><path d="m0 0 .093-2.013c.074-1.272.208-3.083.498-5.198a39.31 39.31 0 0 1 .645-3.344c.292-1.154.69-2.332 1.213-3.437.26-.555.583-1.071.939-1.546.173-.243.378-.452.568-.672l.726-.806 1.449-1.611 1.443-1.697c.926-1.163 1.845-2.317 2.67-3.527.428-.592.833-1.193 1.208-1.806.382-.607.766-1.202 1.109-1.812.723-1.194 1.327-2.408 1.862-3.574.555-1.155.98-2.298 1.335-3.358a29.812 29.812 0 0 0 1.26-5.223c.189-1.274.254-2.008.254-2.008s-.316.67-.823 1.844a64.164 64.164 0 0 1-2.263 4.712c-.252.472-.517.961-.819 1.454-.288.498-.581 1.015-.909 1.532-.633 1.045-1.368 2.106-2.116 3.209-.752 1.101-1.587 2.201-2.441 3.316a113.676 113.676 0 0 1-2.645 3.339l-1.345 1.653-1.405 1.64-.687.799c-.268.322-.52.653-.735.996a11.627 11.627 0 0 0-1.065 2.084c-.567 1.398-.837 2.791-.998 4.093a22.64 22.64 0 0 0-.161 3.653c.056 2.245.369 4.077.633 5.341C-.24-.701 0 0 0 0" style="fill:#502a1d;fill-opacity:1;fill-rule:nonzero;stroke:none" transform="translate(596.896 148.994)"/><path d="M0 0c.984-3.929 9.232-12.469 16.568-15.823 7.335-3.353 18.954-13.685 23.313-18.599 6.183-6.968-8.225-46.787-8.225-46.787 6.469 15.624 28.188 23.788 25.568 56.166-.532 6.578-2.514 10.096-7.335 18.651l-3.406 4.82 6.741 4.558c.431.317 1.707 1.901 4.774 9.597 1.405 3.524-.043 10.043-3.295 14.842-2.143 3.16-4.624 4.973-6.807 4.973-6.024 0-12.315-4.297-14.024-9.579l-.297-5.215-3.91 2.829c-11.872 6.582-13.277 6.978-24.991 7.073C4.674 27.506-1.532 6.118 0 0" style="fill:#502a1d;fill-opacity:1;fill-rule:nonzero;stroke:none" transform="translate(653.04 217.455)"/></g></svg>